<svg width="100%" height="100%" viewBox="0 0 40 40" xmlns="http://www.w3.org/2000/svg" >
  <g transform="matrix(1.08552,0,0,1.04303,2.57708,-95.9129)">
    <path d="M16.298,104.987C16.699,105.304 17.099,105.623 17.498,105.945C17.618,106.042 17.737,106.14 17.856,106.239C18.184,106.521 18.502,106.815 18.816,107.114C19.354,107.625 19.874,108.155 20.373,108.706C21.338,109.77 22.236,110.911 22.99,112.148C23.897,113.637 24.606,115.298 24.804,117.062C24.954,118.396 24.794,119.762 24.362,121.027C23.838,122.557 22.92,123.933 21.736,124.99C20.896,125.74 19.923,126.328 18.877,126.706C18.148,126.969 17.386,127.13 16.616,127.183C15.76,127.241 14.895,127.166 14.06,126.96C13.08,126.717 12.144,126.295 11.301,125.722C10.351,125.076 9.521,124.242 8.866,123.279C8.208,122.313 7.727,121.217 7.467,120.064C7.204,118.9 7.171,117.688 7.377,116.512C7.689,114.738 8.491,113.092 9.465,111.615C10.325,110.311 11.332,109.111 12.409,107.997C12.751,107.643 13.101,107.298 13.459,106.962C13.786,106.653 14.118,106.351 14.463,106.065C14.821,105.772 15.181,105.484 15.542,105.196C15.711,105.061 15.881,104.926 16.05,104.791C16.133,104.856 16.215,104.921 16.298,104.987ZM15.994,108.474C15.762,108.675 15.536,108.884 15.313,109.095C14.933,109.452 14.562,109.821 14.201,110.2C13.405,111.038 12.653,111.928 11.987,112.883C11.552,113.509 11.153,114.165 10.822,114.857C10.564,115.396 10.347,115.959 10.2,116.542C10.099,116.945 10.032,117.357 10.012,117.772C9.986,118.295 10.032,118.822 10.141,119.333C10.326,120.203 10.696,121.026 11.207,121.741C11.663,122.378 12.23,122.929 12.874,123.355C13.393,123.698 13.961,123.96 14.555,124.124C15.042,124.258 15.546,124.326 16.05,124.326C16.554,124.326 17.058,124.258 17.546,124.124C19.026,123.716 20.321,122.701 21.145,121.362C21.54,120.72 21.826,120.005 21.975,119.258C22.129,118.487 22.133,117.691 21.986,116.918C21.871,116.312 21.674,115.724 21.429,115.162C21.112,114.436 20.716,113.75 20.277,113.097C19.617,112.115 18.861,111.204 18.057,110.348C17.649,109.913 17.226,109.493 16.792,109.086C16.568,108.877 16.343,108.669 16.111,108.47L16.055,108.423C16.034,108.44 16.014,108.457 15.994,108.474Z" style="fill:url(#_Linear1);fill-rule:nonzero;"/>
  </g>
  <path d="M10.44,27.26C9.813,27.138 9.2,26.944 8.616,26.686C8.039,26.43 7.491,26.111 6.981,25.74C5.581,24.721 4.48,23.312 3.797,21.723C3.384,20.761 3.125,19.734 3.036,18.691C2.975,17.979 2.993,17.261 3.094,16.554C3.362,14.668 4.171,12.897 5.186,11.301C6.037,9.964 7.041,8.725 8.122,7.569C8.527,7.135 8.945,6.712 9.374,6.301C9.709,5.98 10.049,5.665 10.404,5.366C10.771,5.061 11.14,4.76 11.51,4.459C11.683,4.319 11.857,4.178 12.031,4.037C12.116,4.105 12.2,4.173 12.285,4.241C12.696,4.573 13.107,4.906 13.515,5.241C13.638,5.342 13.761,5.444 13.882,5.548C14.219,5.842 14.545,6.149 14.867,6.46C15.419,6.994 15.952,7.547 16.463,8.12C17.495,9.278 18.447,10.517 19.233,11.857C19.527,12.361 19.799,12.881 20.038,13.417L20,13.387C19.816,13.528 19.632,13.669 19.448,13.809C19.056,14.11 18.665,14.411 18.277,14.716C18.037,14.907 17.802,15.105 17.572,15.308L17.551,15.251C17.257,14.465 16.865,13.718 16.422,13.006C15.953,12.254 15.423,11.54 14.859,10.856C14.017,9.838 13.096,8.891 12.123,7.999L12.036,7.921C12.006,7.948 11.975,7.976 11.945,8.004C11.012,8.864 10.127,9.774 9.313,10.749C8.77,11.399 8.258,12.076 7.798,12.787C7.377,13.435 6.998,14.113 6.693,14.823C6.438,15.417 6.234,16.035 6.114,16.671C5.985,17.36 5.967,18.064 6.061,18.759C6.313,20.628 7.361,22.386 8.93,23.443C9.276,23.676 9.646,23.873 10.033,24.028C10.32,24.142 10.617,24.232 10.919,24.296C10.78,24.727 10.667,25.166 10.585,25.613C10.486,26.157 10.438,26.709 10.44,27.26Z" style="fill:url(#_Linear2);"/>
  <path d="M19.976,13.406C20.305,12.676 20.696,11.973 21.124,11.301C21.974,9.964 22.978,8.725 24.059,7.569C24.465,7.135 24.883,6.712 25.312,6.301C25.647,5.98 25.987,5.665 26.342,5.366C26.708,5.061 27.077,4.76 27.447,4.459C27.621,4.319 27.795,4.178 27.969,4.037C28.053,4.105 28.138,4.173 28.222,4.241C28.634,4.573 29.044,4.906 29.453,5.241C29.576,5.342 29.698,5.444 29.82,5.548C30.156,5.842 30.483,6.149 30.804,6.46C31.356,6.994 31.89,7.547 32.4,8.12C33.433,9.278 34.385,10.517 35.17,11.857C36.138,13.51 36.859,15.348 36.981,17.274C37.071,18.676 36.841,20.096 36.333,21.404C35.867,22.602 35.167,23.708 34.279,24.637C33.508,25.443 32.595,26.114 31.586,26.593C30.942,26.898 30.261,27.123 29.562,27.259C29.564,26.901 29.544,26.542 29.502,26.186C29.427,25.541 29.283,24.91 29.086,24.295C29.577,24.19 30.052,24.016 30.498,23.784C31.167,23.435 31.766,22.956 32.268,22.393C32.864,21.725 33.325,20.937 33.62,20.092C33.946,19.158 34.07,18.15 33.961,17.166C33.889,16.51 33.719,15.868 33.488,15.251C33.194,14.465 32.803,13.718 32.359,13.006C31.89,12.254 31.361,11.54 30.796,10.856C29.955,9.838 29.033,8.891 28.06,7.999L27.974,7.921C27.943,7.948 27.913,7.976 27.882,8.004C26.95,8.864 26.064,9.774 25.251,10.749C24.708,11.399 24.196,12.076 23.735,12.787C23.315,13.435 22.936,14.113 22.631,14.823C22.562,14.982 22.498,15.142 22.438,15.304C22.28,15.167 22.121,15.031 21.96,14.898C21.831,14.794 21.701,14.692 21.571,14.591C21.138,14.255 20.704,13.923 20.268,13.591C20.179,13.523 20.089,13.455 20,13.387L19.976,13.406Z" style="fill:url(#_Linear3);"/>
  <defs>
    <linearGradient id="_Linear1" x1="0" y1="0" x2="1" y2="0" gradientUnits="userSpaceOnUse" gradientTransform="matrix(6.26303e-15,23.0099,-22.1092,6.51817e-15,16.0503,104.42)"><stop offset="0%" style="stop-color:rgb(255,228,127);stop-opacity:1"/><stop offset="100%" style="stop-color:rgb(254,196,72);stop-opacity:1"/></linearGradient>
    <linearGradient id="_Linear2" x1="0" y1="0" x2="1" y2="0" gradientUnits="userSpaceOnUse" gradientTransform="matrix(1.40834e-15,23,-23,1.40834e-15,12,4)"><stop offset="0%" style="stop-color:rgb(240,96,89);stop-opacity:1"/><stop offset="100%" style="stop-color:rgb(254,215,104);stop-opacity:1"/></linearGradient>
    <linearGradient id="_Linear3" x1="0" y1="0" x2="1" y2="0" gradientUnits="userSpaceOnUse" gradientTransform="matrix(1,23,-23,1,28,4)"><stop offset="0%" style="stop-color:rgb(179,195,125);stop-opacity:1"/><stop offset="100%" style="stop-color:rgb(252,214,106);stop-opacity:1"/></linearGradient>
  </defs>
</svg>
