<svg width="100%" height="100%" viewBox="0 0 40 40" xmlns="http://www.w3.org/2000/svg">
  <g transform="matrix(1.06193,0,0,1.06193,-1.2386,-1.24772)">
    <g transform="matrix(1.10345,0,0,1.14137,1.79311,3.77515)">
      <path d="M16.497,1.992C14.335,1.993 11.492,2.012 8.682,2.139C7.499,2.192 6.128,2.266 4.832,2.465C4.593,2.503 4.31,2.558 4.045,2.631C4.009,2.641 3.933,2.664 3.859,2.845C3.76,3.098 3.891,3.969 3.947,4.341C3.968,4.479 6.336,25.314 6.336,25.314C6.444,26.047 7.121,26.697 7.781,26.696L25.265,26.688C25.925,26.687 26.6,26.027 26.712,25.273C26.727,25.11 29.014,4.537 29.055,4.273C29.118,3.846 29.235,3.05 29.14,2.807C29.071,2.639 29.007,2.621 28.949,2.603C28.689,2.531 28.405,2.483 28.163,2.446C26.937,2.258 25.695,2.191 24.315,2.129C21.633,2.01 16.546,1.992 16.497,1.992ZM7.783,28.491C6.227,28.492 4.768,27.17 4.526,25.543C4.526,25.543 2.181,4.906 2.137,4.59C1.998,3.659 1.906,2.833 2.16,2.19C2.422,1.532 2.898,1.087 3.536,0.904C3.875,0.806 4.237,0.74 4.545,0.69C5.904,0.478 7.294,0.402 8.597,0.344C11.386,0.215 14.285,0.198 16.498,0.197C16.547,0.197 21.656,0.209 24.4,0.334C25.706,0.391 27.095,0.463 28.447,0.671C28.756,0.716 29.118,0.781 29.454,0.879C30.102,1.061 30.582,1.5 30.838,2.151C31.114,2.836 30.979,3.737 30.86,4.531C30.817,4.88 28.522,25.498 28.522,25.498C28.282,27.148 26.822,28.482 25.267,28.483L7.783,28.491Z" style="fill:url(#_Linear1);"/>
    </g>
    <g transform="matrix(1.10345,0,0,1.14137,1.79311,3.77515)">
      <path d="M14.948,18.34C14.702,18.138 14.511,17.913 14.445,17.553C14.375,17.178 14.465,16.781 14.661,16.452C14.922,16.013 15.385,15.683 15.898,15.631C16.602,15.558 17.281,16.055 17.387,16.749C17.387,16.749 17.966,20.542 17.966,20.542C17.335,20.083 16.704,19.624 16.073,19.166L15.253,18.57C15.146,18.492 15.043,18.418 14.948,18.34Z" style="fill:url(#_Linear2);"/>
    </g>
    <g transform="matrix(1.10345,0,0,1.14137,1.79311,3.77515)">
      <path d="M13.328,17.411C13.317,17.231 13.313,16.982 13.383,16.709C13.449,16.442 13.569,16.193 13.723,15.966L10.012,16.517C9.285,16.624 8.784,17.292 8.894,18.008L9.737,23.519C9.846,24.235 10.525,24.729 11.253,24.621L17.112,23.752C17.838,23.644 18.339,22.977 18.229,22.261L18.197,22.05L14.293,19.214C13.719,18.798 13.366,18.141 13.328,17.411Z" style="fill:url(#_Linear3);"/>
    </g>
    <g transform="matrix(1.10345,0,0,1.14137,1.79311,3.77515)">
      <path d="M24.655,15.221L19.887,11.756C19.295,11.326 18.462,11.45 18.025,12.032L16.125,14.562C17.307,14.589 18.29,15.426 18.471,16.586L19.213,21.448L19.712,21.81C20.304,22.24 21.137,22.117 21.573,21.535L24.936,17.055C25.373,16.473 25.247,15.651 24.655,15.221Z" style="fill:url(#_Linear4);"/>
    </g>
  </g>
  <defs>
    <linearGradient id="_Linear1" x1="0" y1="0" x2="1" y2="0" gradientUnits="userSpaceOnUse" gradientTransform="matrix(29,28.0365,-29,28.0365,2,0.197)"><stop offset="0%" style="stop-color:rgb(255,126,71);stop-opacity:1"/><stop offset="100%" style="stop-color:rgb(243,96,60);stop-opacity:1"/></linearGradient>
    <linearGradient id="_Linear2" x1="0" y1="0" x2="1" y2="0" gradientUnits="userSpaceOnUse" gradientTransform="matrix(3.5449,4.87333,-3.5449,4.87333,14.4216,15.6235)"><stop offset="0%" style="stop-color:rgb(255,126,71);stop-opacity:1"/><stop offset="100%" style="stop-color:rgb(243,96,60);stop-opacity:1"/></linearGradient>
    <linearGradient id="_Linear3" x1="0" y1="0" x2="1" y2="0" gradientUnits="userSpaceOnUse" gradientTransform="matrix(9.36588,8.59078,-9.36588,8.59078,8.87867,15.9659)"><stop offset="0%" style="stop-color:rgb(255,126,71);stop-opacity:1"/><stop offset="100%" style="stop-color:rgb(243,96,60);stop-opacity:1"/></linearGradient>
    <linearGradient id="_Linear4" x1="0" y1="0" x2="1" y2="0" gradientUnits="userSpaceOnUse" gradientTransform="matrix(9.07131,10.4706,-9.07131,10.4706,16.1251,11.4998)"><stop offset="0%" style="stop-color:rgb(255,126,71);stop-opacity:1"/><stop offset="100%" style="stop-color:rgb(243,96,60);stop-opacity:1"/></linearGradient>
  </defs>
</svg>
