<svg width="100%" height="100%" viewBox="0 0 20 20"
  xmlns="http://www.w3.org/2000/svg">
  <path d="M18,16c-0.001,0.068 -0.003,0.136 -0.01,0.204c-0.017,0.165 -0.054,0.328 -0.111,0.483c-0.201,0.548 -0.644,0.991 -1.192,1.192c-0.204,0.075 -0.418,0.112 -0.635,0.12c-4.017,0.051 -8.035,0.001 -12.052,0.001c-0.068,-0.001 -0.136,-0.003 -0.204,-0.01c-0.165,-0.017 -0.328,-0.054 -0.483,-0.111c-0.303,-0.111 -0.577,-0.296 -0.793,-0.535c-0.185,-0.202 -0.327,-0.443 -0.415,-0.703c-0.07,-0.207 -0.102,-0.422 -0.105,-0.641l0,-14l8,8l8,-8c0,4.667 0,9.333 0,14ZM2.75,15.995c0.002,0.149 0.024,0.294 0.076,0.434c0.125,0.343 0.402,0.62 0.745,0.745c0.127,0.047 0.261,0.07 0.396,0.076c4.022,0.05 8.044,0.05 12.066,0c0.135,-0.006 0.269,-0.029 0.396,-0.076c0.343,-0.125 0.62,-0.402 0.745,-0.745c0.052,-0.14 0.074,-0.285 0.076,-0.434l0,-12.184l-6.72,6.719l-0.048,0.045c-0.053,0.04 -0.105,0.077 -0.165,0.105c-0.199,0.093 -0.435,0.093 -0.634,0c-0.059,-0.028 -0.115,-0.063 -0.165,-0.105c-0.017,-0.014 -0.032,-0.03 -0.048,-0.045l-6.72,-6.719c0,4.061 0,8.123 0,12.184Z" style="fill:#00d4ff;fill-rule:nonzero;"/>
  <path d="M2.586,17.414l7.414,-7.414l7.414,7.414c-0.362,0.362 -0.862,0.586 -1.414,0.586l-12,0c-0.552,0 -1.052,-0.224 -1.414,-0.586Z" style="fill:url(#_Linear1);"/>
  <defs>
    <linearGradient id="_Linear1" x1="0" y1="0" x2="1" y2="0" gradientUnits="userSpaceOnUse" gradientTransform="matrix(4.89859e-16,-8,8,4.89859e-16,10,18)">
      <stop offset="0%" style="stop-color:#21e9f4;stop-opacity:1"/>
      <stop offset="100%" style="stop-color:#00d4ff;stop-opacity:1"/>
    </linearGradient>
  </defs>
</svg>
